<!DOCTYPE svg PUBLIC "-//W3C//DTD SVG 1.1//EN" "http://www.w3.org/Graphics/SVG/1.1/DTD/svg11.dtd">
<!-- Uploaded to: SVG Repo, www.svgrepo.com, Transformed by: SVG Repo Mixer Tools -->
<svg height="800px" width="800px" version="1.1" id="Layer_1" xmlns="http://www.w3.org/2000/svg" xmlns:xlink="http://www.w3.org/1999/xlink" viewBox="0 0 496 496" xml:space="preserve" fill="#000000">
<g id="SVGRepo_bgCarrier" stroke-width="0"/>
<g id="SVGRepo_tracerCarrier" stroke-linecap="round" stroke-linejoin="round"/>
<g id="SVGRepo_iconCarrier"> <circle style="fill:#034281;" cx="248" cy="248" r="240"/> <path style="fill:#034281;" d="M488,248c0,132.8-107.2,240-240,240"/> <path style="fill:#034281;" d="M8,248C8,115.2,115.2,8,248,8"/> <path style="fill:#034281;" d="M248,496C111.2,496,0,384.8,0,248S111.2,0,248,0s248,111.2,248,248S384.8,496,248,496z M248,16 C120,16,16,120,16,248s104,232,232,232s232-104,232-232S376,16,248,16z"/> <polygon style="fill:#034281;" points="248,9.6 41.6,360 454.4,360 "/> <polygon style="fill:#034281;" points="180.8,360 454.4,360 317.6,127.2 "/> <g> <path style="fill:#034281;" d="M454.4,368H41.6c-3.2,0-5.6,0-7.2-2.4c-1.6-2.4-1.6-4.8,0-7.2L241.6,8c3.2-4.8,10.4-4.8,13.6,0 l206.4,350.4c1.6,2.4,1.6,4,0,6.4C459.2,368,456.8,368,454.4,368z M56,352h384L248,24.8L56,352z"/> <path style="fill:#034281;" d="M248,493.6c-2.4,0-5.6-1.6-6.4-4L35.2,139.2c-1.6-2.4-1.6-4.8,0-7.2c1.6-3.2,4-4,6.4-4h412 c3.2,0,5.6,0.8,7.2,3.2s1.6,5.6,0,8L254.4,489.6C253.6,492,250.4,493.6,248,493.6z M56,144l192,327.2L440,144H56z"/> </g> </g>
</svg>